<svg width="60" height="60" viewBox="0 0 60 60" fill="none" xmlns="http://www.w3.org/2000/svg">
<path d="M30 5.00002C26.7484 4.88195 23.5066 5.42284 20.4695 6.59013C17.4324 7.75742 14.6628 9.527 12.3274 11.7924C9.99189 14.0578 8.1388 16.7722 6.87957 19.7724C5.62034 22.7725 4.981 25.9964 5 29.25C4.9581 32.628 5.63655 35.976 6.99014 39.0712C8.34373 42.1663 10.3414 44.9375 12.85 47.2C13.0492 47.3774 13.2113 47.5924 13.3272 47.8327C13.443 48.0729 13.5102 48.3337 13.525 48.6V53.05C13.5387 53.3781 13.632 53.6979 13.7967 53.9818C13.9615 54.2658 14.1929 54.5055 14.4709 54.6801C14.7489 54.8548 15.0652 54.9593 15.3926 54.9845C15.7199 55.0098 16.0485 54.955 16.35 54.825L21.35 52.65C21.7769 52.4888 22.248 52.4888 22.675 52.65C25.0386 53.288 27.4768 53.6075 29.925 53.6C36.3698 53.61 42.5545 51.0593 47.1187 46.5092C51.6828 41.9591 54.2526 35.7823 54.2625 29.3375C54.2724 22.8928 51.7218 16.708 47.1717 12.1438C42.6216 7.57967 36.4448 5.00997 30 5.00002ZM45 23.65L37.675 35.3C37.3987 35.7386 37.0345 36.1152 36.6054 36.406C36.1763 36.6967 35.6915 36.8954 35.1817 36.9893C34.6719 37.0833 34.1482 37.0706 33.6436 36.9519C33.139 36.8333 32.6645 36.6113 32.25 36.3L26.4 31.925C26.1404 31.7303 25.8246 31.625 25.5 31.625C25.1754 31.625 24.8596 31.7303 24.6 31.925L16.7 37.925C16.48 38.0947 16.207 38.1809 15.9294 38.1684C15.6518 38.1558 15.3877 38.0453 15.1839 37.8565C14.9801 37.6677 14.8497 37.4127 14.8161 37.1369C14.7824 36.8611 14.8476 36.5823 15 36.35L22.325 24.7C22.6013 24.2614 22.9655 23.8848 23.3946 23.5941C23.8237 23.3033 24.3085 23.1047 24.8183 23.0107C25.328 22.9167 25.8518 22.9295 26.3564 23.0481C26.861 23.1668 27.3355 23.3887 27.75 23.7L33.6 28.075C33.8596 28.2698 34.1754 28.375 34.5 28.375C34.8246 28.375 35.1404 28.2698 35.4 28.075L43.3 22.075C43.52 21.9053 43.793 21.8191 44.0706 21.8317C44.3482 21.8442 44.6123 21.9547 44.8161 22.1435C45.0199 22.3324 45.1503 22.5873 45.1839 22.8631C45.2176 23.1389 45.1524 23.4177 45 23.65Z" fill="white"/>
</svg>
